<?xml version="1.0" encoding="UTF-8"?>
<svg id="Layer_1" data-name="Layer 1" xmlns="http://www.w3.org/2000/svg" viewBox="0 0 351.39 360.03">
  <defs>
    <style>
      .cls-1 {
        stroke: #fff;
        stroke-miterlimit: 10;
        stroke-width: .5px;
      }

      .cls-1, .cls-2 {
        fill: #fff;
      }

      .cls-3 {
        fill: #3a427b;
      }
    </style>
  </defs>
  <path class="cls-3" d="M229.53,167.14c32.07,6.2,52.95-29.57,79.47-37.99,19.83-5.95,27.51,17.94,39.1,7.36,9.99-12.99-4.91-29.61-16.44-35.91-10.02-6.37-26.54-2.62-37.55.65-1.64.49-3.26,1.04-4.85,1.67-9.1,3.65-16.87,9.72-24.88,15.23-3.98,2.74-7.97,5.41-12.14,7.84s-8.96,4.73-14.03,4.9c-4.08.14-8.19-.91-11.74-2.93s-6.02-5.07-9.35-7.18c-4.04-2.55-8.64-4.22-13.38-4.79-2.27-.27-4.65-.32-6.67-1.39-2.94-1.55-3.38-5.33-2.64-8.25.28-1.11.78-2.16,1.46-3.08s1.59-1.77,2.61-2.37c.62-.37,2.43-1.42,3.18-1.15l19.5,7.14c7.68-1.2,9.95-11.16,3.56-15.58l-17.14-17.5c-3.8-2.62-4.96-7.71-2.67-11.71l16.45-20.47c3.85-6.75-2.52-14.74-9.96-12.49l-23.07,12.16c-4.41,1.33-9.12-.93-10.83-5.21l-9.32-30.68c-2.88-7.22-13.1-7.22-15.98,0l-1.3,30.68c-1.71,4.28-6.41,6.55-10.83,5.21l-21.74-8.15c-7.44-2.25-13.81,5.74-9.96,12.49l15.11,16.46c2.28,4.01,1.12,9.09-2.67,11.71l-18.47,12.15c-6.4,4.41-4.12,14.38,3.56,15.58l20.84-1.79c3.05.48,7.08,3.19,7.35,6.53.13,1.6-.58,3.24-1.84,4.24-17.01,1.77-33.64,4.09-40.69,22.07-8.49,18.64-1.07,45.45-19.53,59.31-10.95,7.86-25.37,5.66-35.19-3.65-8.36-6.81-23.01-17.89-32.66-8.37-4.78,5.47-5.09,14.11-2.88,20.68,1.47,4.42,5.15,7.64,8.77,11.11,5.15,4.69,10.97,9.12,16.83,12.95,11.97,7.26,21.56,13.1,35.69,13.17,17.19-.54,29.48-12.44,34.92-28.56,6.58-14.19,12.74-31.24,23.14-42.91,8.13-7.62,11.85-2.38,11.23,7.43-.96,26.37,1.85,57.2,19.72,78.1,4.72,5.34,10.1,10.33,15.06,15.46,3.42,3.78,6.93,7.03,7.94,11.81.84,4.6-3.77,5.1-7.6,4.46-4.33-.55-10.01-1.52-16.27-2.3-13.15-1.43-26.63-3.34-37.87,4.46-11.98,8.49-17.73,27.01-11.66,40.33,9.06,14.48,34.39,35.48,52.26,31.32,11.03-5.31-1.42-16.4-2.09-24.9-1.35-7.47,1.91-15.29,10.28-11.42,6.73,3,13.16,6.59,20.4,8.91,12.88,4.7,33.51,3.38,36.93-12.44,2.69-13.04.93-28.08-3.83-40.85-3.82-10.47-10.2-19.05-11.3-30.6-.67-6.13.67-10.3,2.12-10.28,2.42.77,3.1,4.86,6.77,10.84,5.48,10.05,14.86,17.67,25.67,21.37,10.62,4.18,23.78,6.98,22.37,20.83.13,7.53.32,15.34.59,22.9-.37,16.66,6.18,33.4,20.52,42.78,6.29,4.5,11.05,5.28,18.68,5.41,6.34.11,12.99.12,19.35-.04,7.92-.28,16.91-1.46,21.3-8.3,4.68-8.32-3.28-16.91-11.55-19.26-12.89-3.27-20.51-1.59-23.84-18.21-2.17-13.87.66-31.19-.54-43.85-.64-7.77-4.13-13.82-8.9-20.48-12.75-17.09-35.31-22.77-52.09-31.94-11.02-6.96-19.97-20.57-24.19-33.16-2.03-6.76-3.04-11.06-2.75-16.21,1.01-4.85,7.91-1.54,12.16-1.35h0Z"/>
  <path class="cls-2" d="M154.98,81.82c-.88-.36-1.68-.84-2.4-1.46-.69-.6-1.25-1.31-1.71-2.1-.22-.38-.41-.78-.56-1.19-.06-.16-.11-.34-.12-.52,0-.51.3-.98.81-1.08.44-.09.82.12,1.08.46.1.13.16.3.22.45.13.29.27.57.42.84.12.2.25.38.39.57.19.24.39.47.61.69.17.16.34.31.53.46.2.15.41.29.62.42.24.13.48.26.74.37.24.09.47.18.72.25.25.06.5.12.75.16.3.04.59.06.89.06.25,0,.51-.02.76-.05.28-.04.56-.1.83-.17.23-.07.46-.15.68-.23.28-.12.56-.26.83-.42.19-.12.37-.24.54-.37.22-.17.42-.35.62-.54.18-.19.35-.39.52-.6.16-.22.31-.45.45-.68.11-.2.21-.4.3-.61.07-.18.14-.36.2-.54.18-.56.82-.85,1.36-.66.56.19.84.81.66,1.36-.82,2.56-2.91,4.61-5.49,5.36-.75.22-1.53.33-2.32.33-1.01,0-2.01-.18-2.94-.56h.01Z"/>
  <path class="cls-2" d="M177.81,81.82c-.88-.36-1.68-.84-2.4-1.46-.69-.6-1.25-1.31-1.71-2.1-.22-.38-.41-.78-.56-1.19-.06-.16-.11-.34-.12-.52,0-.51.3-.98.81-1.08.44-.09.82.12,1.08.46.1.13.16.3.22.45.13.29.27.57.42.84.12.2.25.38.39.57.19.24.39.47.61.69.17.16.34.31.53.46.2.15.41.29.62.42.24.13.48.26.74.37.24.09.47.18.72.25.25.06.5.12.75.16.3.04.59.06.89.06.25,0,.51-.02.76-.05.28-.04.56-.1.83-.17.23-.07.46-.15.68-.23.28-.12.56-.26.83-.42.19-.12.37-.24.54-.37.22-.17.42-.35.62-.54.18-.19.35-.39.52-.6.16-.22.31-.45.45-.68.11-.2.21-.4.3-.61.07-.18.14-.36.2-.54.18-.56.82-.85,1.36-.66.56.19.84.81.66,1.36-.82,2.56-2.91,4.61-5.49,5.36-.75.22-1.53.33-2.32.33-1.01,0-2.01-.18-2.94-.56h.01Z"/>
  <path class="cls-1" d="M160.62,95.84c-3.16-.86-6.2-2.22-8.97-3.96-1.03-.65-2.03-1.37-2.98-2.14-.45-.36-.89-.74-1.32-1.12-.21-.19-.43-.38-.63-.58-.12-.11-.25-.22-.36-.34-.39-.31-.41-.95-.05-1.3.2-.18.47-.26.73-.22.16.03.3.1.41.19.1.08.18.18.28.26.14.13.27.26.41.4.9.84,1.85,1.61,2.76,2.28,1.16.84,2.37,1.6,3.62,2.29,1.2.64,2.42,1.21,3.68,1.7,1.3.49,2.63.89,3.99,1.22,1.34.31,2.7.54,4.08.68,1.34.12,2.69.17,3.99.14h.26c1.38-.06,2.76-.2,4.13-.43,1.4-.25,2.77-.58,4.11-1,1.26-.4,2.48-.88,3.59-1.38,1.27-.59,2.5-1.25,3.6-1.94,1.21-.77,2.36-1.61,3.45-2.51.55-.46,1.09-.93,1.61-1.42.34-.32.67-.65.98-.9.05-.04.09-.09.13-.13.27-.29.78-.24,1.04.03.29.3.24.75-.03,1.04,0,.01-.02.02-.03.03s-.02.03-.03.04c-.33.45-.75.84-1.16,1.23-.59.57-1.21,1.12-1.85,1.64-1.16.95-2.39,1.81-3.68,2.59-2.31,1.4-4.78,2.51-7.25,3.28-1.61.5-3.25.87-4.92,1.13-.78.12-1.58.21-2.37.27-.39.03-.78.05-1.17.07h-.32c-.35,0-.7.02-1.05.02-2.92,0-5.85-.4-8.67-1.16h-.01Z"/>
</svg>